<?xml version="1.0" encoding="UTF-8"?>
<svg xmlns="http://www.w3.org/2000/svg" xmlns:xlink="http://www.w3.org/1999/xlink" viewBox="0 0 50.95 41.34">
  <defs>
    <style>
      .cls-1 {
        fill: #50c0a9;
      }

      .cls-2 {
        isolation: isolate;
      }

      .cls-3 {
        fill: #7B80D4;
      }

      .cls-4 {
        fill: url(#linear-gradient-2);
      }

      .cls-4, .cls-5 {
        mix-blend-mode: screen;
        opacity: .3;
      }

      .cls-5 {
        fill: url(#linear-gradient);
      }
    </style>
    <linearGradient id="linear-gradient" x1="13.75" y1="15.15" x2="4.83" y2="26.7" gradientUnits="userSpaceOnUse">
      <stop offset="0" stop-color="#ffffff" stop-opacity="0"/>
      <stop offset="1" stop-color="#ffffff"/>
    </linearGradient>
    <linearGradient id="linear-gradient-2" x1="43.41" y1="22.58" x2="29.94" y2="24.8" xlink:href="#linear-gradient"/>
  </defs>
  <g class="cls-2">
    <g id="Layer_2" data-name="Layer 2">
      <g id="Layer_1-2" data-name="Layer 1">
        <g>
          <path class="cls-3" d="M43.47,17.57c-3.64-1.26-7.69-.13-10.28,2.72h0s0,0,0,0l-4.56,4.56s0-.01,0-.02l-7.86,7.86-.02.02c-1.31,1.45-3.1,2.43-5.28,2.86-.98.19-2.01.16-2.97-.12-4.21-1.23-6.69-4.67-6.69-8.49,0-2.29.89-4.45,2.51-6.07,1.62-1.62,3.77-2.51,6.07-2.51,1.67,0,3.25.47,4.62,1.35l-3.28,3.28c-1.46,1.46-1.46,3.82,0,5.28l1.47,1.47,5.38-5.38h0s0,0,0,.01l4.4-4.4c-.64-1.17-1.46-2.24-2.42-3.21-2.72-2.72-6.33-4.22-10.18-4.22s-7.46,1.5-10.18,4.22C1.5,19.5,0,23.11,0,26.96s1.5,7.46,4.22,10.18c2.81,2.81,6.49,4.21,10.18,4.21s7.37-1.4,10.18-4.21c0,0,0,0,.01-.01l6.12-6.12s0,0,0,0c0,0,0,0,0,.01l6.39-6.39c.06-.08.13-.15.21-.22.07-.07.15-.15.23-.21.86-.76,1.94-1.13,3.02-1.13,1.49,0,2.98.72,3.9,2.15s.94,3.41,0,4.88c-1.65,2.56-5.11,2.83-7.14.81l-4.11,4.11c2.03,2.03,4.69,3.04,7.35,3.04s5.33-1.02,7.36-3.04c5.21-5.21,3.73-14.61-4.44-17.44Z"/>
          <circle class="cls-1" cx="40.75" cy="10.77" r="3.99"/>
          <circle class="cls-1" cx="14.41" cy="5.02" r="5.02"/>
          <g>
            <path class="cls-5" d="M4.22,16.78c-1,1-1.83,2.12-2.48,3.33.19,3.52,1.54,8.03,6.4,12.71,0,0,0-.02,0-.03-1.48-1.59-2.31-3.64-2.31-5.83s.89-4.45,2.51-6.07c1.62-1.62,3.77-2.51,6.07-2.51,1.24,0,2.44.26,3.54.76,1.97-1.36,3.76-2.79,4.16-4.33-2.28-1.45-4.93-2.24-7.7-2.24-3.84,0-7.46,1.5-10.18,4.22Z"/>
            <path class="cls-4" d="M50.69,25.01c-.44-1.76-1.36-3.4-2.79-4.71-5.08-4.66-10.96-3.91-14.72,0,0,0,0,0,0,0h0s-4.56,4.56-4.56,4.56c0,0,0-.01,0-.02l-2.12,2.12c3.38-3.38,9.81-5.9,15.12-3.75.79.19,1.55.58,2.17,1.2,0,0,0,0,0,0h0c.92.92,1.36,2.13,1.33,3.34,1.38,1.32,3.42-.3,5.56-2.74Z"/>
          </g>
        </g>
      </g>
    </g>
  </g>
</svg>
