<?xml version="1.0" encoding="UTF-8"?>
<svg xmlns="http://www.w3.org/2000/svg" xmlns:xlink="http://www.w3.org/1999/xlink" viewBox="0 0 178.39 44.3">
  <defs>
    <style>
      .cls-1 {
        fill: #231f20;
      }

      .cls-2 {
        fill: #50c0a9;
      }

      .cls-3 {
        isolation: isolate;
      }

      .cls-4 {
        fill: #393d98;
      }

      .cls-5 {
        fill: url(#linear-gradient-2);
      }

      .cls-5, .cls-6 {
        mix-blend-mode: multiply;
        opacity: .8;
      }

      .cls-6 {
        fill: url(#linear-gradient);
      }
    </style>
    <linearGradient id="linear-gradient" x1="13.75" y1="15.15" x2="4.83" y2="26.7" gradientUnits="userSpaceOnUse">
      <stop offset="0" stop-color="#231f20" stop-opacity="0"/>
      <stop offset="1" stop-color="#231f20"/>
    </linearGradient>
    <linearGradient id="linear-gradient-2" x1="43.41" y1="22.58" x2="29.94" y2="24.8" xlink:href="#linear-gradient"/>
  </defs>
  <g class="cls-3">
    <g id="Layer_2" data-name="Layer 2">
      <g id="Layer_1-2" data-name="Layer 1">
        <g>
          <g>
            <path class="cls-1" d="M75.72,27.75v.55c0,.18-.01.37-.03.55h-12.97c.02.68.18,1.33.46,1.93.29.6.67,1.13,1.15,1.57.48.44,1.04.79,1.67,1.04.63.25,1.3.38,2.01.38,1.1,0,2.05-.24,2.86-.72.8-.48,1.43-1.07,1.89-1.75l2.27,1.82c-.87,1.16-1.9,2.01-3.08,2.55-1.18.55-2.49.82-3.94.82-1.24,0-2.39-.21-3.44-.62-1.06-.41-1.96-.99-2.72-1.74-.76-.75-1.35-1.65-1.79-2.7-.44-1.05-.65-2.22-.65-3.51s.21-2.43.64-3.49c.43-1.07,1.02-1.98,1.78-2.74.76-.76,1.66-1.35,2.69-1.77,1.03-.42,2.15-.64,3.34-.64s2.28.2,3.26.58c.98.39,1.8.95,2.48,1.69s1.2,1.62,1.57,2.67c.37,1.04.55,2.22.55,3.53ZM72.42,26.45c-.02-.64-.13-1.24-.33-1.81-.2-.56-.48-1.05-.86-1.46-.38-.41-.85-.74-1.41-.98s-1.22-.36-1.98-.36c-.69,0-1.34.12-1.94.36-.61.24-1.14.57-1.58.98-.45.41-.81.9-1.1,1.46-.29.56-.45,1.16-.5,1.81h9.7Z"/>
            <path class="cls-1" d="M86.91,29.03h-7.98v-2.72h7.98v2.72Z"/>
            <path class="cls-1" d="M100.02,23.87c-.37-.6-.88-1.08-1.55-1.46-.67-.38-1.41-.57-2.24-.57-.37,0-.73.04-1.1.12-.37.08-.69.21-.98.38-.29.17-.52.39-.69.65-.17.26-.26.59-.26.98,0,.69.31,1.2.93,1.53.62.33,1.55.64,2.79.91.78.18,1.5.4,2.17.65.67.25,1.24.57,1.74.95.49.38.88.83,1.15,1.36.28.53.41,1.15.41,1.86,0,.96-.18,1.78-.55,2.44-.37.67-.85,1.21-1.46,1.63-.61.42-1.3.73-2.08.91-.78.18-1.58.28-2.41.28-1.24,0-2.45-.24-3.63-.72-1.18-.48-2.16-1.22-2.94-2.2l2.31-1.96c.44.64,1.04,1.18,1.81,1.62.77.44,1.61.65,2.53.65.41,0,.81-.04,1.19-.12.38-.08.72-.21,1.03-.4.31-.18.56-.42.74-.72.18-.3.28-.68.28-1.14,0-.76-.36-1.32-1.08-1.69-.72-.37-1.78-.71-3.18-1.03-.55-.14-1.11-.3-1.67-.5-.56-.2-1.07-.46-1.53-.81-.46-.34-.83-.77-1.12-1.29-.29-.52-.43-1.15-.43-1.91,0-.87.18-1.62.53-2.25.36-.63.82-1.15,1.39-1.55.57-.4,1.23-.7,1.96-.89.73-.19,1.49-.29,2.27-.29,1.17,0,2.3.23,3.39.69,1.09.46,1.93,1.12,2.53,2l-2.24,1.89Z"/>
            <path class="cls-1" d="M112.68,32.54h.07l4.51-12.8h3.44l-7.91,20.16c-.28.69-.57,1.3-.89,1.84-.32.54-.7,1-1.14,1.38-.44.38-.95.67-1.53.88-.58.21-1.28.31-2.08.31-.34,0-.69-.02-1.05-.05-.36-.03-.72-.1-1.08-.19l.31-2.86c.55.18,1.09.28,1.62.28.85,0,1.48-.24,1.89-.71.41-.47.79-1.14,1.14-2.01l1.03-2.72-6.98-16.31h3.61l5.06,12.8Z"/>
            <path class="cls-1" d="M123.79,21.56c-.02-.69-.06-1.3-.1-1.82h3.06c.05.41.08.89.1,1.43.02.54.03.98.03,1.32h.1c.46-.96,1.13-1.74,2.01-2.32.88-.58,1.87-.88,2.98-.88.5,0,.93.05,1.27.14l-.14,2.99c-.46-.11-.95-.17-1.48-.17-.78,0-1.46.14-2.03.43-.57.29-1.05.67-1.43,1.15-.38.48-.66,1.04-.84,1.67-.18.63-.28,1.29-.28,1.98v8.57h-3.23v-12.8c0-.44-.01-1-.03-1.69Z"/>
            <path class="cls-1" d="M140.06,13.85c0,.6-.21,1.09-.63,1.48-.42.39-.93.58-1.52.58s-1.09-.2-1.5-.6c-.41-.4-.61-.89-.61-1.46s.2-1.1.61-1.5c.41-.4.91-.6,1.5-.6s1.1.2,1.52.6c.42.4.63.9.63,1.5ZM139.55,36.05h-3.23v-16.31h3.23v16.31Z"/>
            <path class="cls-1" d="M155.34,25.48c0-1.21-.37-2.12-1.1-2.7-.73-.59-1.71-.88-2.92-.88-.92,0-1.78.18-2.6.53-.81.36-1.5.81-2.05,1.36l-1.72-2.06c.8-.76,1.78-1.35,2.94-1.79,1.16-.44,2.4-.65,3.73-.65,1.17,0,2.18.17,3.04.5.86.33,1.57.79,2.12,1.36.55.57.96,1.25,1.24,2.03.28.78.41,1.62.41,2.51v7.12c0,.55.02,1.13.05,1.74.03.61.1,1.11.19,1.5h-2.92c-.18-.78-.28-1.56-.28-2.34h-.1c-.6.87-1.35,1.55-2.25,2.03-.91.48-1.98.72-3.22.72-.64,0-1.31-.09-2.01-.26-.7-.17-1.34-.45-1.91-.84-.57-.39-1.05-.91-1.43-1.55s-.57-1.43-.57-2.37c0-1.24.33-2.22,1-2.94s1.54-1.27,2.61-1.65c1.08-.38,2.29-.62,3.65-.74s2.72-.17,4.09-.17v-.45ZM154.55,28.27c-.8,0-1.63.03-2.49.1-.86.07-1.64.21-2.34.41-.7.21-1.28.52-1.74.93-.46.41-.69.96-.69,1.65,0,.48.1.88.29,1.2.19.32.45.59.77.79.32.21.68.35,1.07.43.39.08.79.12,1.2.12,1.51,0,2.68-.45,3.49-1.36.81-.91,1.22-2.05,1.22-3.42v-.86h-.79Z"/>
            <path class="cls-1" d="M166.76,19.74c.05.41.08.88.1,1.39.02.52.03.95.03,1.29h.1c.21-.44.49-.84.84-1.22.36-.38.76-.71,1.22-1,.46-.29.96-.51,1.51-.67s1.12-.24,1.72-.24c1.05,0,1.96.18,2.72.53.76.36,1.39.83,1.89,1.43.5.6.88,1.3,1.12,2.1s.36,1.66.36,2.58v10.12h-3.23v-9.05c0-.66-.05-1.3-.15-1.89-.1-.6-.29-1.12-.57-1.58-.28-.46-.65-.83-1.14-1.1-.48-.28-1.1-.41-1.86-.41-1.29,0-2.33.49-3.15,1.46s-1.22,2.28-1.22,3.9v8.67h-3.23v-12.8c0-.44-.01-1-.03-1.69-.02-.69-.06-1.3-.1-1.82h3.06Z"/>
          </g>
          <g>
            <path class="cls-4" d="M43.47,17.57c-3.64-1.26-7.69-.13-10.28,2.72h0s0,0,0,0l-4.56,4.56s0-.01,0-.02l-7.86,7.86-.02.02c-1.31,1.45-3.1,2.43-5.28,2.86-.98.19-2.01.16-2.97-.12-4.21-1.23-6.69-4.67-6.69-8.49,0-2.29.89-4.45,2.51-6.07,1.62-1.62,3.77-2.51,6.07-2.51,1.67,0,3.25.47,4.62,1.35l-3.28,3.28c-1.46,1.46-1.46,3.82,0,5.28l1.47,1.47,5.38-5.38h0s0,0,0,.01l4.4-4.4c-.64-1.17-1.46-2.24-2.42-3.21-2.72-2.72-6.33-4.22-10.18-4.22s-7.46,1.5-10.18,4.22C1.5,19.5,0,23.11,0,26.96s1.5,7.46,4.22,10.18c2.81,2.81,6.49,4.21,10.18,4.21s7.37-1.4,10.18-4.21c0,0,0,0,.01-.01l6.12-6.12s0,0,0,0c0,0,0,0,0,.01l6.39-6.39c.06-.08.13-.15.21-.22.07-.07.15-.15.23-.21.86-.76,1.94-1.13,3.02-1.13,1.49,0,2.98.72,3.9,2.15s.94,3.41,0,4.88c-1.65,2.56-5.11,2.83-7.14.81l-4.11,4.11c2.03,2.03,4.69,3.04,7.35,3.04s5.33-1.02,7.36-3.04c5.21-5.21,3.73-14.61-4.44-17.44Z"/>
            <circle class="cls-2" cx="40.75" cy="10.77" r="3.99"/>
            <circle class="cls-2" cx="14.41" cy="5.02" r="5.02"/>
            <g>
              <path class="cls-6" d="M4.22,16.78c-1,1-1.83,2.12-2.48,3.33.19,3.52,1.54,8.03,6.4,12.71,0,0,0-.02,0-.03-1.48-1.59-2.31-3.64-2.31-5.83s.89-4.45,2.51-6.07c1.62-1.62,3.77-2.51,6.07-2.51,1.24,0,2.44.26,3.54.76,1.97-1.36,3.76-2.79,4.16-4.33-2.28-1.45-4.93-2.24-7.7-2.24-3.84,0-7.46,1.5-10.18,4.22Z"/>
              <path class="cls-5" d="M50.69,25.01c-.44-1.76-1.36-3.4-2.79-4.71-5.08-4.66-10.96-3.91-14.72,0,0,0,0,0,0,0h0s-4.56,4.56-4.56,4.56c0,0,0-.01,0-.02l-2.12,2.12c3.38-3.38,9.81-5.9,15.12-3.75.79.19,1.55.58,2.17,1.2,0,0,0,0,0,0h0c.92.92,1.36,2.13,1.33,3.34,1.38,1.32,3.42-.3,5.56-2.74Z"/>
            </g>
          </g>
        </g>
      </g>
    </g>
  </g>
</svg>